<mxfile host="app.diagrams.net" agent="Mozilla/5.0 (Windows NT 10.0; Win64; x64) AppleWebKit/537.36 (KHTML, like Gecko) Chrome/141.0.0.0 Safari/537.36" version="28.2.7">
  <diagram id="aS9pjdUC0Do7hMSleVWt" name="第 1 页">
    <mxGraphModel dx="2765" dy="1474" grid="0" gridSize="10" guides="1" tooltips="1" connect="1" arrows="1" fold="1" page="1" pageScale="1" pageWidth="3300" pageHeight="2339" background="none" math="0" shadow="0">
      <root>
        <mxCell id="0" />
        <mxCell id="1" parent="0" />
        <mxCell id="ViQVYETGNk87aPVbKulY-24" value="数据审核与分发" style="swimlane;childLayout=stackLayout;resizeParent=1;resizeParentMax=0;startSize=20;horizontal=0;horizontalStack=1;" vertex="1" parent="1">
          <mxGeometry x="124" y="92" width="1020" height="1203" as="geometry">
            <mxRectangle x="124" y="92" width="32" height="53" as="alternateBounds" />
          </mxGeometry>
        </mxCell>
        <mxCell id="ViQVYETGNk87aPVbKulY-25" value="开始" style="swimlane;startSize=20;" vertex="1" parent="ViQVYETGNk87aPVbKulY-24">
          <mxGeometry x="20" width="200" height="1203" as="geometry">
            <mxRectangle x="20" width="32" height="480" as="alternateBounds" />
          </mxGeometry>
        </mxCell>
        <mxCell id="ViQVYETGNk87aPVbKulY-26" value="Lane 2" style="swimlane;startSize=20;" vertex="1" parent="ViQVYETGNk87aPVbKulY-24">
          <mxGeometry x="220" width="200" height="1203" as="geometry" />
        </mxCell>
        <mxCell id="ViQVYETGNk87aPVbKulY-27" value="Lane 3" style="swimlane;startSize=20;" vertex="1" parent="ViQVYETGNk87aPVbKulY-24">
          <mxGeometry x="420" width="200" height="1203" as="geometry" />
        </mxCell>
        <mxCell id="ViQVYETGNk87aPVbKulY-28" style="swimlane;startSize=20;" vertex="1" parent="ViQVYETGNk87aPVbKulY-24">
          <mxGeometry x="620" width="200" height="1203" as="geometry" />
        </mxCell>
        <mxCell id="ViQVYETGNk87aPVbKulY-29" style="swimlane;startSize=20;" vertex="1" parent="ViQVYETGNk87aPVbKulY-24">
          <mxGeometry x="820" width="200" height="1203" as="geometry" />
        </mxCell>
      </root>
    </mxGraphModel>
  </diagram>
</mxfile>
